<?xml version="1.0" encoding="utf-8"?>
<!-- Generator: Adobe Illustrator 16.0.0, SVG Export Plug-In . SVG Version: 6.00 Build 0)  -->
<!DOCTYPE svg PUBLIC "-//W3C//DTD SVG 1.1//EN" "http://www.w3.org/Graphics/SVG/1.1/DTD/svg11.dtd">
<svg version="1.1" id="Calque_1" xmlns="http://www.w3.org/2000/svg" xmlns:xlink="http://www.w3.org/1999/xlink" x="0px" y="0px"
	 width="404.672px" height="73.357px" viewBox="0 0 404.672 73.357" enable-background="new 0 0 404.672 73.357"
	 xml:space="preserve">
<linearGradient id="SVGID_1_" gradientUnits="userSpaceOnUse" x1="427.7031" y1="866.9292" x2="463.3916" y2="866.9292" gradientTransform="matrix(1 0 0 1 -182 -831)">
	<stop  offset="0" style="stop-color:#5257DF"/>
	<stop  offset="0.6696" style="stop-color:#2D85DA"/>
	<stop  offset="1" style="stop-color:#00B8D7"/>
</linearGradient>
<path fill="url(#SVGID_1_)" d="M281.392,57.639c0,0.224-0.085,0.422-0.256,0.592c-0.168,0.168-0.365,0.252-0.589,0.252
	c-0.453,0-0.735-0.187-0.848-0.562l-16.405-41.386l-1.862,4.792c0.149,0.301,0.472,1.054,0.961,2.255
	c0.487,1.206,1.086,2.68,1.804,4.427c0.712,1.747,1.484,3.684,2.312,5.807c0.825,2.125,1.673,4.28,2.535,6.456
	c0.861,2.181,1.701,4.302,2.511,6.37c0.807,2.071,1.521,3.914,2.142,5.529c0.618,1.613,1.118,2.921,1.492,3.918
	c0.377,0.996,0.564,1.511,0.564,1.55c0,0.412-0.188,0.677-0.564,0.79c-0.072,0-0.131,0.009-0.168,0.026
	c-0.04,0.021-0.094,0.027-0.169,0.027c-0.377,0-0.641-0.187-0.791-0.562l-13.531-34.169l-13.134,34.167
	c-0.149,0.376-0.435,0.564-0.848,0.564c-0.077,0-0.121-0.01-0.142-0.031c-0.018-0.017-0.064-0.024-0.141-0.024
	c-0.375-0.112-0.562-0.396-0.562-0.846c0-0.038,0.225-0.656,0.677-1.861c0.452-1.203,1.041-2.765,1.775-4.68
	c0.734-1.918,1.578-4.115,2.538-6.596c0.96-2.482,1.936-5.027,2.931-7.642c0.998-2.611,1.992-5.196,2.989-7.753
	c0.993-2.554,1.897-4.894,2.705-7.02c0.809-2.122,1.491-3.908,2.059-5.356c0.566-1.447,0.923-2.376,1.071-2.791
	c0.151-0.337,0.432-0.506,0.849-0.506c0.412,0,0.674,0.169,0.788,0.506c0.15,0.415,0.516,1.346,1.098,2.791
	c0.583,1.448,1.288,3.234,2.114,5.356c0.828,2.125,1.757,4.465,2.792,7.02c1.033,2.557,2.064,5.142,3.102,7.753
	c1.032,2.614,2.047,5.159,3.046,7.642c0.992,2.48,1.866,4.686,2.619,6.623c0.751,1.937,1.361,3.504,1.831,4.708
	C281.157,56.98,281.392,57.6,281.392,57.639z"/>
<linearGradient id="SVGID_2_" gradientUnits="userSpaceOnUse" x1="505.5078" y1="867.1792" x2="549.8066" y2="867.1792" gradientTransform="matrix(1 0 0 1 -182 -831)">
	<stop  offset="0" style="stop-color:#5257DF"/>
	<stop  offset="0.6696" style="stop-color:#2D85DA"/>
	<stop  offset="1" style="stop-color:#00B8D7"/>
</linearGradient>
<path fill="url(#SVGID_2_)" d="M367.807,36.18c0,3.065-0.581,5.947-1.743,8.637c-1.163,2.697-2.738,5.042-4.735,7.036
	c-1.992,1.992-4.338,3.568-7.032,4.736c-2.695,1.157-5.577,1.74-8.64,1.74s-5.945-0.583-8.636-1.74
	c-2.697-1.168-5.041-2.744-7.033-4.736c-1.997-1.994-3.573-4.339-4.736-7.036c-1.162-2.69-1.743-5.572-1.743-8.637
	c0-3.063,0.581-5.945,1.743-8.638c1.163-2.694,2.739-5.04,4.736-7.034c1.992-1.991,4.336-3.571,7.033-4.734
	c2.69-1.16,5.573-1.744,8.636-1.744s5.944,0.583,8.64,1.744c2.694,1.164,5.04,2.743,7.032,4.734c1.997,1.995,3.572,4.34,4.735,7.034
	C367.226,30.234,367.807,33.116,367.807,36.18z M366.094,36.18c0-2.805-0.536-5.443-1.611-7.919c-1.069-2.473-2.535-4.642-4.4-6.505
	c-1.866-1.866-4.033-3.333-6.505-4.404c-2.478-1.069-5.117-1.606-7.921-1.606c-2.807,0-5.446,0.537-7.916,1.606
	c-2.477,1.073-4.647,2.538-6.513,4.404c-1.862,1.863-3.326,4.032-4.397,6.505c-1.07,2.474-1.608,5.114-1.608,7.919
	c0,2.807,0.538,5.449,1.608,7.92c1.071,2.469,2.535,4.644,4.397,6.506c1.865,1.861,4.036,3.334,6.513,4.401
	c2.47,1.07,5.109,1.607,7.916,1.607c2.804,0,5.443-0.537,7.921-1.607c2.472-1.067,4.639-2.54,6.505-4.401
	c1.865-1.862,3.331-4.037,4.4-6.506C365.558,41.628,366.094,38.982,366.094,36.18z"/>
<g>
	
		<linearGradient id="SVGID_3_" gradientUnits="userSpaceOnUse" x1="453" y1="-18.5571" x2="482.9033" y2="-18.5571" gradientTransform="matrix(1 0 0 -1 -453 16.0137)">
		<stop  offset="0" style="stop-color:#5257DF"/>
		<stop  offset="0.6696" style="stop-color:#2D85DA"/>
		<stop  offset="1" style="stop-color:#00B8D7"/>
	</linearGradient>
	<path fill="url(#SVGID_3_)" d="M29.903,57.469c0,0.616-0.315,0.926-0.951,0.926H0.885C0.295,58.395,0,58.096,0,57.5V11.938
		c0-0.238,0.091-0.444,0.275-0.623c0.182-0.18,0.4-0.269,0.646-0.269c0.245,0,0.462,0.089,0.645,0.269
		c0.186,0.179,0.276,0.385,0.276,0.623v44.612h3.933V11.698c0-0.238,0.096-0.456,0.289-0.652c0.191-0.2,0.404-0.3,0.634-0.3
		c0.616,0,0.923,0.318,0.923,0.952v44.849h21.328C29.586,56.547,29.903,56.856,29.903,57.469z"/>
</g>
<g>
	
		<linearGradient id="SVGID_4_" gradientUnits="userSpaceOnUse" x1="668.292" y1="-20.1069" x2="696.7188" y2="-20.1069" gradientTransform="matrix(1 0 0 -1 -453 16.0137)">
		<stop  offset="0" style="stop-color:#5257DF"/>
		<stop  offset="0.6696" style="stop-color:#2D85DA"/>
		<stop  offset="1" style="stop-color:#00B8D7"/>
	</linearGradient>
	<path fill="url(#SVGID_4_)" d="M243.719,57.889c0,0.582-0.301,0.878-0.904,0.878h-26.681c-0.561,0-0.842-0.282-0.842-0.85V14.607
		c0-0.227,0.087-0.424,0.265-0.596c0.171-0.169,0.379-0.253,0.61-0.253c0.235,0,0.441,0.084,0.615,0.253
		c0.176,0.172,0.264,0.37,0.264,0.596v42.407h3.737V14.38c0-0.228,0.092-0.435,0.274-0.623c0.182-0.188,0.385-0.284,0.604-0.284
		c0.583,0,0.877,0.302,0.877,0.907v42.63h20.276C243.417,57.01,243.719,57.305,243.719,57.889z"/>
</g>
<g>
	
		<linearGradient id="SVGID_5_" gradientUnits="userSpaceOnUse" x1="512.8564" y1="-18.5571" x2="560.5049" y2="-18.5571" gradientTransform="matrix(1 0 0 -1 -453 16.0137)">
		<stop  offset="0" style="stop-color:#5257DF"/>
		<stop  offset="0.6696" style="stop-color:#2D85DA"/>
		<stop  offset="1" style="stop-color:#00B8D7"/>
	</linearGradient>
	<path fill="url(#SVGID_5_)" d="M107.504,34.569c0,3.297-0.625,6.393-1.878,9.292c-1.252,2.898-2.946,5.418-5.091,7.564
		c-2.143,2.146-4.665,3.842-7.565,5.091c-2.898,1.251-5.997,1.878-9.29,1.878c-3.296,0-6.395-0.627-9.292-1.878
		c-2.899-1.249-5.418-2.95-7.562-5.091c-2.145-2.146-3.843-4.666-5.093-7.564c-1.251-2.899-1.876-5.995-1.876-9.292
		c0-3.295,0.625-6.393,1.876-9.289c1.25-2.899,2.948-5.423,5.093-7.567c2.144-2.144,4.663-3.839,7.562-5.09
		c2.898-1.252,5.996-1.878,9.292-1.878c3.292,0,6.392,0.625,9.29,1.878c2.9,1.251,5.421,2.946,7.565,5.09
		c2.146,2.144,3.839,4.667,5.091,7.567C106.876,28.177,107.504,31.274,107.504,34.569z M105.658,34.569
		c0-3.016-0.579-5.854-1.728-8.516c-1.151-2.66-2.73-4.993-4.736-6.999c-2.005-2.005-4.338-3.58-6.999-4.734
		c-2.658-1.148-5.499-1.728-8.516-1.728c-3.018,0-5.857,0.579-8.516,1.728c-2.661,1.154-4.997,2.73-7,4.734
		c-2.003,2.006-3.583,4.339-4.733,6.999c-1.152,2.66-1.728,5.5-1.728,8.516c0,3.017,0.576,5.857,1.728,8.519
		c1.15,2.659,2.73,4.989,4.733,6.997c2.005,2.003,4.338,3.583,7,4.733c2.659,1.152,5.498,1.729,8.516,1.729
		c3.017,0,5.858-0.576,8.516-1.729c2.661-1.15,4.993-2.73,6.999-4.733c2.006-2.008,3.585-4.338,4.736-6.997
		C105.079,40.426,105.658,37.586,105.658,34.569z"/>
</g>
<g>
	
		<linearGradient id="SVGID_6_" gradientUnits="userSpaceOnUse" x1="564.8965" y1="-18.5581" x2="599.5605" y2="-18.5581" gradientTransform="matrix(1 0 0 -1 -453 16.0137)">
		<stop  offset="0" style="stop-color:#5257DF"/>
		<stop  offset="0.6696" style="stop-color:#2D85DA"/>
		<stop  offset="1" style="stop-color:#00B8D7"/>
	</linearGradient>
	<path fill="url(#SVGID_6_)" d="M139.295,57.5c0,0.238-0.101,0.443-0.299,0.624c-0.199,0.178-0.419,0.271-0.656,0.271
		c-0.318,0-0.557-0.122-0.714-0.358l-23.881-33.533v32.938c0,0.236-0.098,0.454-0.291,0.655c-0.194,0.198-0.404,0.295-0.631,0.295
		c-0.619,0-0.926-0.316-0.926-0.95V21.529c0-0.201,0.093-0.399,0.289-0.597c0.19-0.197,0.38-0.299,0.573-0.299
		c0.27,0,0.517,0.14,0.747,0.417c0.278,0.396,0.854,1.204,1.728,2.412c0.872,1.213,1.943,2.689,3.214,4.437
		c1.273,1.75,2.662,3.684,4.171,5.805c1.507,2.125,3.037,4.259,4.584,6.407c1.549,2.143,3.046,4.234,4.498,6.28
		c1.447,2.049,2.739,3.872,3.871,5.48c1.13,1.608,2.033,2.919,2.709,3.929C138.955,56.814,139.295,57.381,139.295,57.5z
		 M146.561,57.441c0,0.638-0.319,0.954-0.953,0.954c-0.319,0-0.556-0.122-0.714-0.358l-32.756-45.564
		c-0.081-0.078-0.118-0.254-0.118-0.535c0-0.635,0.285-0.952,0.859-0.952c0.228,0,0.458,0.138,0.688,0.413l31.149,43.24V11.641
		c0-0.238,0.088-0.447,0.267-0.625c0.18-0.179,0.387-0.267,0.625-0.267c0.237,0,0.443,0.088,0.625,0.267
		c0.177,0.179,0.268,0.389,0.268,0.625L146.561,57.441z"/>
</g>
<g>
	
		<linearGradient id="SVGID_7_" gradientUnits="userSpaceOnUse" x1="824.7217" y1="-20.1074" x2="857.6719" y2="-20.1074" gradientTransform="matrix(1 0 0 -1 -453 16.0137)">
		<stop  offset="0" style="stop-color:#5257DF"/>
		<stop  offset="0.6696" style="stop-color:#2D85DA"/>
		<stop  offset="1" style="stop-color:#00B8D7"/>
	</linearGradient>
	<path fill="url(#SVGID_7_)" d="M397.766,57.917c0,0.227-0.097,0.422-0.282,0.594c-0.194,0.169-0.399,0.256-0.623,0.256
		c-0.304,0-0.531-0.114-0.681-0.34l-22.7-31.874V57.86c0,0.226-0.094,0.435-0.277,0.625c-0.186,0.188-0.385,0.279-0.603,0.279
		c-0.586,0-0.878-0.3-0.878-0.904V23.722c0-0.189,0.091-0.377,0.273-0.567c0.181-0.186,0.363-0.283,0.546-0.283
		c0.256,0,0.491,0.134,0.711,0.399c0.263,0.375,0.808,1.142,1.64,2.29c0.83,1.152,1.849,2.557,3.057,4.217
		c1.207,1.662,2.529,3.5,3.962,5.52c1.438,2.02,2.891,4.049,4.36,6.088c1.474,2.037,2.895,4.027,4.276,5.973
		c1.374,1.948,2.603,3.68,3.68,5.209c1.075,1.528,1.931,2.774,2.576,3.735C397.443,57.266,397.766,57.804,397.766,57.917z
		 M404.672,57.86c0,0.608-0.303,0.907-0.905,0.907c-0.304,0-0.528-0.114-0.68-0.34L371.95,15.114
		c-0.076-0.074-0.113-0.242-0.113-0.507c0-0.604,0.272-0.907,0.816-0.907c0.219,0,0.437,0.132,0.653,0.396L402.919,55.2V14.325
		c0-0.229,0.084-0.426,0.253-0.595c0.171-0.17,0.369-0.254,0.595-0.254c0.224,0,0.42,0.084,0.594,0.254
		c0.168,0.169,0.253,0.37,0.253,0.595L404.672,57.86z"/>
</g>
<g>
	<g>
		
			<linearGradient id="SVGID_8_" gradientUnits="userSpaceOnUse" x1="219.374" y1="858.1948" x2="244.71" y2="858.1948" gradientTransform="matrix(1 0 0 1 -193 -829)">
			<stop  offset="0" style="stop-color:#5257DF"/>
			<stop  offset="0.6696" style="stop-color:#2D85DA"/>
			<stop  offset="1" style="stop-color:#00B8D7"/>
		</linearGradient>
		<path fill="url(#SVGID_8_)" d="M64.305,12.809c0.897-1.172,0.424-2.12-1.056-2.12l-29.73-0.028L28.6,0.547
			C28.493,0.245,28.15,0,27.825,0H14.593c-0.321,0-0.582,0.258-0.582,0.583v1.241c0,0.323,0.26,0.583,0.577,0.583h11.686
			c0.318,0,0.661,0.242,0.773,0.556l3.736,7.698l-8.793,0.028c-1.457,0-1.934,0.967-1.055,2.164l20.091,27.258l-0.263,16.433h-5.809
			v1.848h14.533v-1.848h-6.395l0.266-16.433L64.305,12.809z M42.396,37.311l-14.137-18.85h22.572c0.485,0,0.877-0.392,0.877-0.876
			l0,0c0-0.484-0.392-0.878-0.877-0.878H27.251c-0.096,0-0.186,0.021-0.275,0.049l-2.572-3.429h3.558h8.556h21.128l2.708,0.041
			h0.343l-4.028,4.911L42.396,37.311z"/>
	</g>
</g>
<linearGradient id="SVGID_9_" gradientUnits="userSpaceOnUse" x1="171.1992" y1="36.3169" x2="209.499" y2="36.3169">
	<stop  offset="0" style="stop-color:#5257DF"/>
	<stop  offset="0.6696" style="stop-color:#2D85DA"/>
	<stop  offset="1" style="stop-color:#00B8D7"/>
</linearGradient>
<path fill="url(#SVGID_9_)" d="M209.464,37.641L209.464,37.641v-0.01h-16.651c-0.002,0-0.007,0-0.009,0c-0.006,0-0.007,0-0.012,0
	h-0.002l0,0c-0.458,0.009-0.831,0.381-0.831,0.843c0,0.46,0.374,0.834,0.831,0.841v0.009l14.983-0.003v2.696h-14.947
	c-0.008,0-0.014-0.006-0.022-0.006c-0.467,0-0.845,0.379-0.845,0.848c0,0.458,0.374,0.834,0.831,0.839v0.009h14.983v7.601
	c-1.791,1.688-3.812,3.075-6.124,4.075c-2.508,1.084-5.18,1.627-8.02,1.627c-2.841,0-5.515-0.543-8.02-1.627
	c-2.505-1.083-4.705-2.57-6.591-4.456c-1.887-1.887-3.372-4.087-4.456-6.59s-1.629-5.177-1.629-8.017
	c0-2.844,0.545-5.517,1.629-8.023c1.084-2.502,2.569-4.699,4.456-6.589c1.886-1.886,4.086-3.372,6.591-4.456
	c2.504-1.084,5.179-1.627,8.02-1.627c2.84,0,5.511,0.542,8.02,1.627c2.504,1.084,4.696,2.57,6.588,4.456l1.263-1.26
	c-2.021-2.021-4.395-3.616-7.124-4.795c-2.73-1.175-5.646-1.765-8.747-1.765c-3.104,0-6.021,0.589-8.747,1.765
	c-2.73,1.178-5.105,2.774-7.123,4.795c-2.019,2.018-3.615,4.393-4.795,7.121c-1.176,2.729-1.765,5.644-1.765,8.751
	c0,3.099,0.588,6.018,1.765,8.743c1.18,2.731,2.776,5.105,4.795,7.125c2.018,2.018,4.393,3.614,7.123,4.794
	c2.726,1.174,5.643,1.764,8.747,1.764c3.1,0,6.017-0.59,8.747-1.764c2.729-1.18,5.103-2.776,7.124-4.794l-0.035-0.036V37.641z"/>
<linearGradient id="SVGID_10_" gradientUnits="userSpaceOnUse" x1="282.1953" y1="43.6792" x2="320.2539" y2="43.6792">
	<stop  offset="0" style="stop-color:#5257DF"/>
	<stop  offset="0.6696" style="stop-color:#2D85DA"/>
	<stop  offset="1" style="stop-color:#00B8D7"/>
</linearGradient>
<path fill="url(#SVGID_10_)" d="M312.452,55.235c-2.491,1.079-5.148,1.619-7.969,1.619c-2.823,0-5.481-0.54-7.968-1.619
	c-2.491-1.073-4.675-2.551-6.551-4.427c-1.875-1.876-3.35-4.06-4.426-6.547c-1.081-2.489-1.619-5.146-1.619-7.969
	s0.538-5.48,1.619-7.97c1.076-2.487,2.551-4.671,4.426-6.545c1.876-1.875,4.06-3.352,6.551-4.432
	c2.486-1.076,5.145-1.615,7.968-1.615c2.82,0,5.478,0.539,7.969,1.615c2.487,1.077,4.669,2.556,6.547,4.432l1.255-1.257
	c-2.008-2.004-4.366-3.594-7.078-4.762c-2.712-1.169-5.61-1.755-8.692-1.755c-3.083,0-5.983,0.586-8.691,1.755
	c-2.713,1.168-5.072,2.758-7.077,4.762c-2.008,2.007-3.595,4.368-4.767,7.079c-1.169,2.711-1.753,5.609-1.753,8.693
	c0,3.083,0.584,5.982,1.753,8.691c1.172,2.714,2.759,5.072,4.767,7.077c2.005,2.008,4.364,3.595,7.077,4.766
	c1.985,0.855,4.075,1.395,6.261,1.625v6.896c0,0.063,0.021,0.123,0.036,0.182c0.008,0.112,0.029,0.226,0.092,0.33
	c0.201,0.334,0.637,0.443,0.97,0.24c0.639-0.381,1.394-0.525,2.126-0.404c0.83,0.136,1.554,0.586,2.044,1.268
	c0.491,0.682,0.686,1.516,0.551,2.344c-0.138,0.826-0.587,1.553-1.27,2.043c-0.682,0.491-1.515,0.688-2.341,0.549
	c-0.385-0.063-0.75,0.198-0.812,0.583c-0.063,0.386,0.195,0.751,0.583,0.813c0.249,0.041,0.5,0.062,0.747,0.062
	c0.946,0,1.867-0.295,2.648-0.857c0.988-0.712,1.643-1.765,1.841-2.963c0.196-1.203-0.085-2.41-0.796-3.399
	c-0.344-0.479-0.771-0.875-1.256-1.185v-6.539c2.077-0.246,4.064-0.771,5.96-1.588c2.712-1.171,5.07-2.758,7.078-4.766l-1.255-1.252
	C317.121,52.684,314.939,54.162,312.452,55.235z M305.801,64.376c-0.098-0.023-0.19-0.062-0.293-0.078
	c-0.688-0.113-1.381-0.051-2.039,0.146v-5.889c0.338,0.014,0.675,0.022,1.015,0.022c0.442,0,0.88-0.015,1.317-0.038V64.376z"/>
</svg>
